<?xml version="1.0" encoding="utf-8"?>
<!-- Generator: Adobe Illustrator 12.0.0, SVG Export Plug-In . SVG Version: 6.00 Build 51448)  -->
<!DOCTYPE svg PUBLIC "-//W3C//DTD SVG 1.1//EN" "http://www.w3.org/Graphics/SVG/1.1/DTD/svg11.dtd" [
	<!ENTITY ns_svg "http://www.w3.org/2000/svg">
	<!ENTITY ns_xlink "http://www.w3.org/1999/xlink">
]>
<svg  version="1.1" id="レイヤー_1" xmlns="&ns_svg;" xmlns:xlink="&ns_xlink;" width="20" height="20" viewBox="0 0 20 20"
	 overflow="visible" enable-background="new 0 0 20 20" xml:space="preserve">
<path id="calendar-5-icon" fill="#FFFFFF" d="M7.158,11.979H4.298V9.061h2.859V11.979z M11.478,9.061H8.619v2.918h2.859V9.061z
	 M15.798,9.061h-2.859v2.918h2.859V9.061z M7.158,13.321H4.298v2.918h2.859V13.321z M11.478,13.321H8.619v2.918h2.859V13.321z
	 M15.798,13.321h-2.859v2.918h2.859V13.321z M16.863,3.169c0,0.497-0.394,0.9-0.882,0.9c-0.487,0-0.882-0.403-0.882-0.9V0.903
	c0-0.497,0.395-0.899,0.882-0.899c0.488,0,0.882,0.402,0.882,0.899V3.169z M4.946,0.899C4.946,0.402,4.551,0,4.064,0
	C3.577,0,3.182,0.402,3.182,0.899v2.266c0,0.497,0.395,0.9,0.882,0.9c0.487,0,0.882-0.403,0.882-0.9V0.899z M17.929,2.214v0.923
	c0,1.096-0.873,1.988-1.948,1.988c-1.073,0-1.948-0.893-1.948-1.988V2.214H6.012v0.918c0,1.097-0.874,1.989-1.948,1.989
	c-1.074,0-1.948-0.893-1.948-1.989V2.214H0V20h20V2.214H17.929z M18.058,18.018H1.941V6.996h16.117V18.018z"/>
</svg>
