<?xml version="1.0" encoding="utf-8"?>
<!-- Generator: Adobe Illustrator 12.0.0, SVG Export Plug-In . SVG Version: 6.00 Build 51448)  -->
<!DOCTYPE svg PUBLIC "-//W3C//DTD SVG 1.1//EN" "http://www.w3.org/Graphics/SVG/1.1/DTD/svg11.dtd" [
	<!ENTITY ns_svg "http://www.w3.org/2000/svg">
	<!ENTITY ns_xlink "http://www.w3.org/1999/xlink">
]>
<svg  version="1.1" id="レイヤー_1" xmlns="&ns_svg;" xmlns:xlink="&ns_xlink;" width="20" height="20" viewBox="0 0 20 20"
	 overflow="visible" enable-background="new 0 0 20 20" xml:space="preserve">
<path id="info-2-icon" fill="#FFFFFF" d="M10,1.941c4.454,0,8.058,3.604,8.058,8.059c0,4.453-3.604,8.059-8.058,8.059
	S1.942,14.454,1.942,10C1.942,5.547,5.546,1.941,10,1.941 M10,0C4.477,0,0,4.478,0,10s4.477,10,10,10s10-4.478,10-10S15.523,0,10,0
	L10,0z M11.448,15.416H8.649V8.767h2.798V15.416z M10.048,7.392c-0.851,0-1.54-0.689-1.54-1.54s0.689-1.54,1.54-1.54
	s1.54,0.689,1.54,1.54S10.899,7.392,10.048,7.392z"/>
</svg>
