<?xml version="1.0" encoding="utf-8"?>
<!-- Generator: Adobe Illustrator 12.0.0, SVG Export Plug-In . SVG Version: 6.00 Build 51448)  -->
<!DOCTYPE svg PUBLIC "-//W3C//DTD SVG 1.1//EN" "http://www.w3.org/Graphics/SVG/1.1/DTD/svg11.dtd" [
	<!ENTITY ns_svg "http://www.w3.org/2000/svg">
	<!ENTITY ns_xlink "http://www.w3.org/1999/xlink">
]>
<svg  version="1.1" id="レイヤー_1" xmlns="&ns_svg;" xmlns:xlink="&ns_xlink;" width="300" height="135.564"
	 viewBox="0 0 300 135.564" overflow="visible" enable-background="new 0 0 300 135.564" xml:space="preserve">
<g>
	<path fill="#162850" d="M27.051,4.15c-0.03,0.622-0.059,1.274-0.059,2.282c0,1.749,0.148,11.531,0.178,13.398
		c0,0.889,0.03,2.372,0.03,3.527c0,1.809-0.178,3.053-3.706,3.794c-0.089-0.919-0.296-1.838-2.52-2.905l0.03-0.237
		c1.601,0.119,2.579,0.148,2.875,0.148c0.83,0,1.038-0.059,1.038-1.156V14.14c0-1.126-0.03-10.138-0.03-10.819V2.994H7.576
		c0,1.719,0,9.278-0.03,10.819c0,1.008-0.03,2.016-0.03,3.053c0,2.757,0,5.573,0.148,7.707c0,0.148,0.03,0.475,0.03,0.771
		c0,1.512-1.571,1.512-1.719,1.512c-0.89,0-0.89-0.563-0.89-1.008c0-0.415,0.119-2.312,0.119-2.727
		c0.06-1.957,0.237-9.13,0.237-14.584c0-5.543-0.119-6.254-0.445-7.588l2.787,1.334h16.778l0.8-0.86
		c0.178-0.178,0.296-0.267,0.474-0.267s0.326,0.089,0.504,0.237l1.482,1.304C28,2.875,28.147,3.053,28.147,3.202
		C28.147,3.498,27.732,3.735,27.051,4.15z M22.841,7.737h-9.278c-0.534,0-2.075,0-3.498,0.267L9.473,6.818
		c1.838,0.148,3.676,0.208,4.565,0.208h5.573l0.979-1.215c0.208-0.237,0.326-0.355,0.504-0.355c0.148,0,0.326,0.089,0.563,0.326
		l1.334,1.186c0.148,0.148,0.296,0.326,0.296,0.504S23.079,7.737,22.841,7.737z M20.707,12.776c-0.029,0.919,0.03,2.579,0.06,3.557
		c0,0.504,0.119,2.727,0.119,3.053c0,0.386-0.089,0.682-0.385,0.89c-0.326,0.237-0.771,0.326-1.097,0.326
		c-0.741,0-0.741-0.356-0.741-1.067V19.09h-5.128c0.03,0.356,0.03,1.334-0.03,1.601c-0.148,0.682-0.948,0.948-1.452,0.948
		c-0.771,0-0.771-0.533-0.771-0.771c0-1.186,0.237-6.403,0.237-7.47c0-1.245-0.059-1.867-0.326-3.32l2.52,1.364h4.802l0.623-0.711
		c0.208-0.237,0.326-0.326,0.474-0.326c0.148,0,0.296,0.089,0.534,0.296l1.097,0.86c0.208,0.178,0.296,0.326,0.296,0.474
		C21.537,12.302,21.211,12.509,20.707,12.776z M18.662,12.154h-5.128v6.225h5.128V12.154z"/>
	<path fill="#162850" d="M40.627,6.818c-0.623,1.038-3.231,5.603-3.794,6.521c-0.504,0.771-0.86,1.245-1.097,1.571
		c0.415-0.06,2.313-0.267,2.698-0.326c0.03-0.267,0.089-0.8,0.089-1.275c0-0.652-0.148-1.156-0.237-1.512l2.253,0.534
		c0.237,0.059,0.445,0.208,0.445,0.445c0,0.178-0.089,0.355-0.534,0.83c-1.097,8.093-5.188,10.671-7.855,12.005l-0.059-0.208
		c4.209-3.498,5.454-8.092,5.81-10.108c-1.126,0.563-3.202,1.452-4.209,1.867c-0.208,0.445-0.355,0.682-0.563,0.682
		c-0.237,0-0.356-0.386-0.415-0.534L32.357,15c0.385,0.059,0.711,0.089,1.126,0.089c0.385,0,1.008-0.06,1.452-0.089
		c1.601-2.905,3.024-5.929,3.883-9.13c0.119-0.475,0.208-0.979,0.267-1.245l1.957,1.067c0.208,0.119,0.356,0.178,0.356,0.356
		C41.398,6.255,41.309,6.344,40.627,6.818z M38.374,3.024c-2.193,3.379-2.431,3.735-2.875,4.328
		c0.919,0.652,1.571,1.571,1.571,2.372c0,0.415-0.385,1.008-0.978,1.008c-0.534,0-0.623-0.178-1.423-1.63
		c-0.889-1.66-1.66-2.223-2.253-2.638l0.178-0.237c1.156,0.267,1.779,0.504,2.49,0.889c0.267-0.711,1.363-3.705,1.363-6.313
		L38.7,1.809c0.385,0.178,0.534,0.326,0.534,0.504C39.234,2.609,38.967,2.787,38.374,3.024z M49.253,23.981
		c-0.948,0-1.156-0.948-1.334-1.867c-0.029-0.208-0.178-0.89-0.474-1.69c-0.534,0.385-1.304,0.919-2.668,1.69
		c-1.126,0.652-2.994,1.749-3.379,1.956c-0.208,0.475-0.267,0.652-0.534,0.652c-0.208,0-0.385-0.296-0.504-0.445l-1.364-2.045
		c1.038-0.029,1.601-0.089,2.787-0.385c0-3.112,0.03-11.768,0-14.199c0-1.245-0.089-3.913-0.474-5.573l2.579,1.364h3.409l0.83-0.771
		c0.148-0.119,0.296-0.296,0.415-0.296s0.386,0.208,0.504,0.296l0.919,0.741c0.148,0.119,0.326,0.326,0.326,0.534
		c0,0.267-0.089,0.326-0.978,0.889c0.029,1.215-0.03,6.61,0,7.707c0,0.385,0.119,2.075,0.119,2.401c0,0.919-0.771,1.275-1.275,1.275
		c-0.741,0-0.711-0.385-0.652-1.927H43.65v7.025c1.423-0.444,2.372-0.741,3.646-1.274c-0.475-1.156-1.067-2.134-1.868-3.053
		l0.178-0.208c1.719,1.186,4.772,3.291,4.772,5.81C50.379,22.973,50.202,23.981,49.253,23.981z M47.504,4.15H43.65v4.298h3.854V4.15
		z M47.504,9.16H43.65v4.417h3.854V9.16z M55.063,23.537c-0.119-0.771-0.237-1.779-1.542-2.875l0.06-0.237
		c0.593,0.178,1.215,0.267,1.838,0.267c1.541,0,1.63-1.245,1.63-1.927c0-3.972-2.668-6.61-3.528-7.44
		c0.979-2.787,2.016-6.937,2.194-7.974h-2.698c0.03,0.801,0.06,1.334,0.06,2.164c0,2.045-0.06,11.027-0.03,12.865
		c0.03,1.097,0.178,6.047,0.178,7.055c0,0.445,0,1.423-1.482,1.423c-0.741,0-0.771-0.593-0.771-0.949c0-0.208,0.06-1.126,0.06-1.304
		c0.178-3.379,0.178-12.776,0.178-16.6c0-0.711,0-4.921-0.208-6.521l2.164,1.156h2.431l0.859-0.711
		c0.208-0.148,0.326-0.237,0.445-0.237c0.178,0,0.385,0.148,0.534,0.267l1.156,1.038c0.326,0.267,0.356,0.563,0.356,0.682
		c0,0.385-0.296,0.504-1.156,0.889c-0.296,0.652-0.623,1.305-1.778,3.35c-1.097,1.927-1.394,2.431-1.868,3.291
		c2.964,2.075,4.98,4.595,4.98,7.588C59.124,20.424,58.679,22.943,55.063,23.537z"/>
	<path fill="#162850" d="M89.211,24.426c-1.779,0.385-2.431,1.008-3.35,2.075c-3.646-2.252-6.077-5.958-7.589-9.96
		c-1.008-2.638-2.016-6.225-2.164-13.487c-0.119,0.03-0.178,0.03-0.326,0.06c-0.296,10.078-2.253,19.475-12.835,23.299l-0.118-0.237
		c3.616-2.164,6.699-6.195,8.092-9.071c2.134-4.417,2.608-10.701,2.608-14.021c0-1.423-0.119-1.778-0.267-2.253l3.586,0.919
		c0.504,0.119,0.593,0.178,0.593,0.415c0,0.474-0.475,0.652-0.771,0.741c0.208,5.158,1.779,11.383,4.535,15.325
		c2.875,4.061,6.551,5.424,8.033,5.958L89.211,24.426z"/>
	<path fill="#162850" d="M112.57,24.485c-0.83,0.267-4.061,0.475-5.87,0.475c-1.008,0-5.839,0.029-8.003-1.482
		c-1.156-0.8-1.867-2.134-1.867-3.379c0-1.837,1.186-4.713,5.691-7.529c-0.356-0.534-1.156-1.719-1.186-3.438
		c-0.089-4.625-0.119-5.128-0.267-5.751c-0.178-0.741-0.682-1.304-1.097-1.512c-0.83-0.445-0.949-0.474-1.156-0.623
		c0.356-0.148,0.949-0.415,1.689-0.415c1.305,0,3.409,1.186,3.409,2.075c0,0.148-0.119,0.504-0.178,0.652
		c-0.237,0.711-0.623,1.779-0.623,4.091c0,1.453,0.059,2.905,0.652,4.209c1.719-0.979,3.528-1.779,5.425-2.46
		c0.534-0.208,0.859-0.385,0.859-0.8c0-0.208-0.059-0.445-0.237-0.949c0.474,0.119,1.393,0.296,1.956,0.949
		c0.475,0.534,0.801,1.274,0.801,1.601c0,0.83-0.208,0.83-1.838,1.097c-4.209,0.652-12.895,4.387-12.895,8.537
		c0,3.172,4.417,3.172,6.343,3.172c2.312,0,3.468-0.178,6.373-0.682c0.415-0.06,0.771-0.119,1.126-0.119
		c0.8,0,2.016,0.296,2.016,1.245C113.696,24.129,112.955,24.366,112.57,24.485z"/>
	<path fill="#162850" d="M147.281,19.327h-11.086c0.919,1.186,4.861,4.743,11.323,4.625v0.178c-1.215,0.296-2.342,1.66-2.638,2.46
		c-5.543-1.837-8.418-5.395-9.189-7.232c0,0.978,0.119,5.691,0.119,6.758c0,1.275-1.334,1.275-1.453,1.275
		c-0.741,0-0.83-0.534-0.83-0.89c0-0.889,0.237-5.217,0.267-6.166c-2.46,2.668-7.351,5.721-11.442,6.403l-0.089-0.178
		c3.883-1.868,7.44-4.713,9.575-7.233h-6.284c-0.8,0-2.194,0.03-3.498,0.267l-0.593-1.156c2.342,0.178,4.031,0.178,4.565,0.178
		h7.766c-0.059-2.223-0.178-2.579-0.533-3.261l2.786,0.771c0.148,0.029,0.415,0.148,0.415,0.355c0,0.237-0.178,0.474-0.682,0.83
		c-0.059,0.919-0.059,1.008-0.059,1.304h8.181l1.067-1.334c0.148-0.208,0.296-0.385,0.445-0.385s0.296,0.059,0.563,0.326
		l1.452,1.334c0.178,0.178,0.296,0.267,0.296,0.444C147.726,19.327,147.429,19.327,147.281,19.327z M133.379,9.664h-4.032v3.587
		c2.075-0.326,2.816-0.534,3.468-0.711l0.03,0.178c-0.771,0.385-1.334,0.652-4.328,1.749c-1.393,0.534-3.083,1.186-4.001,1.571
		c-0.208,0.652-0.385,0.771-0.563,0.771c-0.089,0-0.296-0.148-0.385-0.326l-1.274-2.549c0.652,0.119,1.067,0.148,1.304,0.148
		c0.711,0,3.112-0.385,3.942-0.534V9.664h-0.593c-0.534,0-1.571,0.03-2.52,0.178l-0.593-1.067c1.66,0.119,3.171,0.178,3.586,0.178
		h3.291l0.711-0.948c0.208-0.267,0.267-0.386,0.444-0.386c0.178,0,0.326,0.119,0.563,0.326l1.097,0.949
		c0.119,0.089,0.296,0.296,0.296,0.444C133.823,9.604,133.586,9.664,133.379,9.664z M133.912,4.921h-5.899
		c1.305,0.504,2.757,1.038,2.757,2.431c0,0.593-0.444,1.097-1.008,1.097c-0.771,0-0.919-0.682-1.067-1.274
		c-0.237-1.008-1.008-2.016-1.304-2.253h-0.593c-1.986,2.282-3.586,3.231-4.298,3.646l-0.089-0.089
		c1.808-2.164,3.409-4.446,4.505-7.055c0.237-0.563,0.296-0.859,0.267-1.423l2.371,1.215C129.822,1.334,130,1.512,130,1.719
		c0,0.297-0.326,0.445-1.215,0.682c-0.504,0.682-0.83,1.126-1.393,1.808h3.675l0.83-0.949c0.296-0.326,0.326-0.355,0.475-0.355
		c0.178,0,0.326,0.119,0.563,0.296l1.156,0.949c0.118,0.118,0.296,0.296,0.296,0.444C134.387,4.862,134.12,4.921,133.912,4.921z
		 M146.481,15.474c-0.504,0.267-0.979,0.326-4.417,0.326c-2.134,0-2.134-1.097-2.134-2.342c0-0.237,0-1.364,0.089-3.942h-3.676
		c-0.059,0.682-0.089,1.037-0.267,1.719c2.075,0.593,3.172,1.186,3.172,2.312c0,0.208-0.06,1.067-0.949,1.067
		c-0.652,0-0.741-0.267-1.126-1.363s-0.474-1.215-1.126-1.897c-1.008,3.468-4.061,4.535-6.047,4.92l-0.06-0.148
		c3.913-1.927,4.536-5.099,4.536-6.462c0-0.504-0.089-1.126-0.208-1.601L133.972,8.3l-0.119-0.089
		c0.889-1.364,3.261-6.166,3.083-8.063l2.49,1.215c0.089,0.059,0.326,0.208,0.326,0.415c0,0.296-0.267,0.415-1.097,0.682
		c-0.326,0.593-0.563,0.979-1.038,1.719h5.454l1.008-1.245c0.178-0.237,0.326-0.386,0.504-0.386s0.326,0.119,0.534,0.326
		l1.393,1.245c0.148,0.148,0.296,0.296,0.296,0.444c0,0.297-0.296,0.326-0.474,0.326h-6.699c1.186,0.385,2.668,0.83,2.668,2.134
		c0,0.385-0.237,1.186-1.156,1.097l1.186,0.86c0.089,0.059,0.297,0.267,0.297,0.415c0,0.237-0.326,0.504-0.89,0.889
		c-0.029,0.652-0.089,2.816-0.029,3.291c0.059,0.474,0.355,0.474,1.304,0.474c1.452,0,2.045-0.089,2.342-0.593
		c0.208-0.385,0.355-0.86,0.889-2.49h0.148c0.148,1.423,0.386,2.134,0.949,2.549c0.267,0.178,0.356,0.326,0.356,0.475
		C147.696,14.673,147.014,15.207,146.481,15.474z M139.989,6.61c-0.563-1.156-1.067-1.571-1.245-1.719h-1.601
		c-0.918,1.304-1.808,2.223-2.786,3.083l2.193,0.83h3.053l0.771-0.682c0.089-0.089,0.178-0.148,0.296-0.178
		C140.522,7.796,140.107,6.818,139.989,6.61z"/>
	<path fill="#162850" d="M168.594,27.183c-0.475,0-0.563-0.119-1.956-2.372c-1.63-2.638-2.312-3.32-7.944-8.893
		c-0.297-0.296-1.066-1.156-1.066-2.105c0-0.474,0.088-0.978,1.096-2.045c2.994-3.171,7.5-7.885,7.5-9.041
		c0-0.711-0.652-1.364-1.423-2.134c2.608-0.267,4.001,1.897,4.001,3.023c0,0.593-0.295,0.83-1.186,1.542
		c-0.947,0.741-5.365,4.802-7.825,7.5c-0.504,0.533-0.504,0.919-0.504,1.097c0,0.741,0.208,0.949,2.608,3.142
		c6.641,5.988,7.826,7.025,7.826,8.567C169.721,26.145,169.336,27.183,168.594,27.183z"/>
	<path fill="#162850" d="M185.193,16.956c-0.475,0-2.045,0-3.467,0.267l-0.594-1.186c2.164,0.178,4.031,0.208,4.564,0.208h1.156
		c0-1.749-0.029-3.053-0.266-4.269l2.697,0.741c0.236,0.06,0.414,0.208,0.414,0.415s-0.148,0.415-0.918,0.8
		c-0.061,0.652-0.09,1.156-0.119,2.312h2.432l1.008-1.067c0.236-0.237,0.385-0.385,0.504-0.385c0.178,0,0.414,0.178,0.563,0.296
		l1.334,1.097c0.148,0.119,0.297,0.267,0.297,0.445c0,0.267-0.268,0.326-0.475,0.326h-5.662c-0.029,0.267-0.029,0.504-0.029,1.453
		c1.541,0.208,4.119,1.008,4.119,2.846c0,0.83-0.592,1.215-1.096,1.215c-0.711,0-1.008-0.682-1.215-1.186
		c-0.268-0.652-0.742-1.749-1.809-2.52c0,1.156,0.207,6.166,0.207,7.173c0,0.919-0.504,1.274-1.393,1.274
		c-0.652,0-0.92-0.296-0.92-0.83c0-0.386,0.355-5.128,0.355-5.929c0-0.237-0.029-1.423-0.029-1.63
		c-1.127,1.719-3.646,4.506-6.758,5.929l-0.119-0.178c2.965-2.667,5.039-6.017,5.898-7.618H185.193z M191.775,11.205l0.889-1.038
		c0.207-0.237,0.326-0.385,0.445-0.385c0.207,0,0.385,0.208,0.533,0.326l1.215,1.038c0.148,0.118,0.297,0.296,0.297,0.474
		c0,0.267-0.238,0.296-0.445,0.296h-9.811c-0.504,0-2.047,0-3.498,0.267l-0.564-1.156c2.164,0.148,4.063,0.178,4.535,0.178h3.262
		c0.297-0.623,1.719-3.794,1.6-6.106l2.668,1.482c0.209,0.118,0.297,0.267,0.297,0.474c0,0.504-0.623,0.534-1.066,0.563
		c-0.297,0.415-1.809,2.313-3.055,3.587H191.775z M191.123,4.15l1.037-1.126c0.148-0.178,0.355-0.356,0.475-0.356
		c0.178,0,0.355,0.148,0.533,0.296l1.305,1.126c0.178,0.148,0.295,0.267,0.295,0.474c0,0.267-0.236,0.297-0.443,0.297h-8.449
		c-0.504,0-2.045,0-3.498,0.267l-0.563-1.186c1.512,0.148,3.023,0.208,4.535,0.208h0.949c0.029-1.305-0.059-2.638-0.475-4.061
		l2.994,0.8c0.266,0.059,0.445,0.178,0.445,0.415c0,0.296-0.416,0.593-1.008,0.919c0,0.296-0.061,1.512-0.061,1.927H191.123z
		 M184.098,5.603c1.096,0.593,3.289,1.897,3.289,3.617c0,0.8-0.473,1.304-1.096,1.304c-0.801,0-1.156-0.504-1.305-1.69
		c-0.119-0.978-0.268-1.808-1.096-3.083L184.098,5.603z M205.678,2.105c0.117,0.119,0.178,0.237,0.178,0.415
		c0,0.178-0.148,0.355-0.475,0.355c-0.207,0-0.445-0.059-1.156-0.237c-1.867,0.504-5.484,0.83-6.285,0.86
		c-0.029,1.808-0.059,4.743-0.088,6.729h6.076l1.098-1.394c0.117-0.178,0.295-0.385,0.504-0.385c0.088,0,0.355,0.148,0.533,0.326
		l1.541,1.364c0.148,0.118,0.297,0.296,0.297,0.474c0,0.296-0.268,0.326-0.445,0.326h-4.477c0,1.867,0.148,9.664,0.148,9.841
		c0,0.8,0.148,4.298,0.148,5.099c0,0.948-0.889,1.363-1.6,1.363c-0.713,0-0.801-0.385-0.801-0.771c0-0.178,0-0.504,0.029-0.86
		c0.119-2.372,0.207-6.937,0.207-11.709c0-0.889-0.029-1.956-0.059-2.964h-3.201c-0.059,6.936-1.037,12.153-6.818,15.533
		l-0.178-0.178c3.734-3.854,5.068-7.055,5.068-17.726c0-1.808-0.029-5.425-0.473-6.966l2.637,1.274
		c0.979-0.267,4.092-1.186,5.365-2.786L205.678,2.105z"/>
	<path fill="#162850" d="M223.434,25.819c-5.01,0-5.811-2.312-5.811-7.559c0-1.512,0.355-11.146,0.355-12.717
		c0-2.312-0.563-2.52-2.4-3.142c0.682-0.741,1.838-0.741,1.955-0.741c1.453,0,3.232,1.423,3.232,2.283
		c0,0.267-0.297,1.423-0.355,1.66c-1.008,5.099-1.098,12.45-1.098,13.517c0,3.35,0,5.01,3.26,5.01
		c3.498,0,10.465-3.023,13.133-5.543l0.119,0.119C233.482,23.092,228.295,25.819,223.434,25.819z"/>
	<path fill="#162850" d="M249.578,20.127c-0.029,0.148-0.061,0.237-0.061,0.385c0,0.237,0.238,1.364,0.238,1.601
		c0,0.771-0.475,1.008-0.92,1.008c-1.037,0-5.246-1.482-5.75-9.931c-0.178-2.935-0.297-4.802-0.475-5.454
		c-0.266-1.067-0.74-1.867-1.037-2.431c1.512,0.089,3.734,1.393,3.734,3.32c0,0.208,0,0.386-0.117,0.979
		c-0.18,1.097-0.387,2.549-0.387,4.12c0,3.646,1.779,5.81,2.58,5.81c0.326,0,0.621-0.385,0.711-0.534
		c1.334-1.986,3.527-5.128,4.803-7.144l0.236,0.089C252.719,12.835,249.637,19.801,249.578,20.127z M264.25,18.29
		c-0.355,0-0.473-0.119-1.629-1.215c-0.801-0.741-2.402-1.038-3.143-1.186v-0.178c0.414-0.06,2.43-0.237,2.639-0.296
		c0.385-0.089,0.65-0.326,0.65-0.771c0-0.919-1.541-5.276-5.217-7.114c0.209-0.029,0.268-0.059,0.504-0.059
		c3.32,0,7.234,5.454,7.234,8.893C265.289,17.4,264.725,18.29,264.25,18.29z"/>
	<path fill="#162850" d="M279.842,5.899c0.148,0.089,0.297,0.237,0.297,0.445c0,0.504-0.682,0.563-1.127,0.623
		c-0.977,1.512-3.674,4.891-4.801,6.106c1.6-0.089,2.846-0.148,4.387-0.326c-0.682-1.038-0.801-1.215-1.334-1.689l0.029-0.148
		c2.164,0.593,4.15,1.542,4.15,3.112c0,0.771-0.533,1.215-1.037,1.215c-0.742,0-0.979-0.652-1.156-1.067
		c-0.09-0.208-0.297-0.652-0.355-0.919l-2.461,0.623c0.029,0.889,0.148,11.62,0.148,11.946c0,0.86-0.445,1.364-1.334,1.364
		c-0.771,0-0.801-0.415-0.801-0.979c0-0.296,0.09-1.689,0.09-1.956c0.029-0.623,0.029-2.313,0.029-2.964
		c0-1.808,0.029-4.891,0.029-6.937c-2.223,0.534-2.668,0.593-3.143,0.682c-0.385,0.711-0.414,0.771-0.652,0.771
		c-0.266,0-0.414-0.296-0.473-0.475l-0.949-2.401c0.385,0.148,0.83,0.267,1.896,0.267c0.148,0,1.543-0.059,2.193-0.089
		c1.66-2.608,3.795-6.313,4.002-8.596L279.842,5.899z M269.705,25.522c0.859-2.372,1.631-6.225,1.719-9.278l2.105,0.979
		c0.178,0.089,0.475,0.237,0.475,0.474c0,0.208-0.09,0.267-0.742,0.623c-1.273,4.861-2.785,6.61-3.35,7.233L269.705,25.522z
		 M270.623,5.01c0.564,0.148,1.246,0.385,2.195,0.889c1.777-3.824,1.867-4.802,1.955-5.839l2.371,1.334
		c0.148,0.089,0.268,0.178,0.268,0.444c0,0.386-0.297,0.445-0.979,0.563c-1.541,1.897-1.689,2.075-3.23,3.735
		c1.6,1.038,1.6,2.016,1.6,2.282c0,0.563-0.326,1.245-1.037,1.245c-0.77,0-0.947-0.444-1.363-1.63
		c-0.355-1.067-1.098-2.104-1.838-2.875L270.623,5.01z M277.264,16.6c2.727,1.363,4.27,3.438,4.27,4.654
		c0,0.445-0.238,1.423-1.098,1.423c-0.682,0-0.83-0.385-1.244-1.689c-0.742-2.223-1.008-2.668-1.986-4.239L277.264,16.6z
		 M284.467,3.676c0.119,0.06,0.268,0.208,0.268,0.415c0,0.356-0.326,0.474-0.742,0.593c-1.57,2.935-2.313,4.328-4.713,6.374
		l-0.119-0.148c1.838-3.023,2.936-6.521,2.877-8.418L284.467,3.676z M293.301,16.867l0.947-1.571
		c0.09-0.119,0.297-0.356,0.475-0.356c0.209,0,0.475,0.237,0.533,0.296l1.602,1.571c0.178,0.148,0.297,0.267,0.297,0.445
		c0,0.267-0.268,0.326-0.445,0.326h-8.27c0,1.304,0.207,7.055,0.207,8.241c0,0.593,0,1.66-1.541,1.66
		c-0.652,0-0.859-0.296-0.859-0.89c0-0.415,0.117-2.252,0.148-2.608c0.088-1.778,0.088-3.883,0.117-6.403h-2.045
		c-0.297,0-2.135,0-3.498,0.267l-0.592-1.186c2.252,0.178,4.475,0.208,4.564,0.208h1.57c0-2.697,0-3.023,0.029-5.603h-0.711
		c-0.504,0-2.045,0-3.498,0.267l-0.563-1.186c1.631,0.118,3.32,0.207,4.771,0.207c0.031-7.736,0-8.24-0.563-10.078l2.936,0.623
		c0.207,0.029,0.504,0.118,0.504,0.444s-0.238,0.475-0.949,0.889c0,1.245-0.029,7.589-0.029,8.122h2.934l0.859-1.393
		c0.09-0.119,0.297-0.385,0.475-0.385c0.209,0,0.504,0.296,0.533,0.326l1.365,1.393c0.207,0.208,0.266,0.267,0.266,0.445
		c0,0.267-0.266,0.326-0.443,0.326h-5.988c-0.029,2.164,0,2.52,0,5.603H293.301z M290.129,3.765
		c4.061,0.267,5.514,1.897,5.514,3.113c0,0.623-0.387,1.037-1.037,1.037c-0.564,0-0.682-0.148-1.838-1.541
		c-1.186-1.453-1.838-1.927-2.639-2.49V3.765z"/>
</g>
<circle fill="#FFFFFF" cx="110.099" cy="88.938" r="46.626"/>
<path fill="#A79D65" d="M70.656,122.715c-2.683,1.914-5.594,3.529-8.698,4.768c2.091-2.471,3.953-5.451,5.548-8.831
	c-1.894-2.71-3.532-5.606-4.888-8.657c-4.35-0.443-8.84-0.715-13.426-0.796V91.504h9.029c-0.041-0.852-0.064-1.707-0.064-2.566
	c0-0.861,0.023-1.717,0.064-2.566h-9.029V68.456c4.609-0.068,9.129-0.324,13.508-0.754c1.34-2.984,2.949-5.822,4.805-8.477
	c-1.594-3.383-3.456-6.361-5.547-8.832c3.104,1.24,6.016,2.854,8.697,4.769c1.129-1.315,2.321-2.574,3.574-3.771
	c-7.734-5.699-17.279-9.078-27.604-9.078C20.917,42.313,0,63.229,0,88.938c0,25.71,20.917,46.626,46.625,46.626
	c10.324,0,19.869-3.378,27.604-9.077C72.976,125.288,71.784,124.032,70.656,122.715z M49.192,47.758
	c5.566,1.311,10.563,6.801,14.065,14.729c-4.536,0.481-9.248,0.762-14.065,0.836V47.758z M31.293,50.393
	c-2.609,3.086-4.871,6.954-6.69,11.425c-2.765-0.405-5.445-0.892-8.024-1.451C20.676,56.061,25.684,52.634,31.293,50.393z
	 M12.923,64.78c3.163,0.767,6.478,1.424,9.929,1.957c-1.795,5.867-2.891,12.516-3.104,19.635H5.22
	C5.713,78.348,8.497,70.938,12.923,64.78z M12.706,112.792c-4.3-6.097-7.001-13.395-7.485-21.287h14.527
	c0.21,7,1.274,13.539,3.017,19.332C19.266,111.366,15.912,112.026,12.706,112.792z M16.31,117.226
	c2.628-0.563,5.358-1.048,8.177-1.452c1.838,4.593,4.142,8.559,6.807,11.709C25.561,125.194,20.456,121.667,16.31,117.226z
	 M44.059,130.12c-5.631-1.326-10.678-6.927-14.186-14.998c4.577-0.476,9.328-0.748,14.186-0.805V130.12z M44.059,109.184
	c-5.502,0.063-10.887,0.384-16.048,0.965c-1.779-5.551-2.894-11.91-3.122-18.645h19.17V109.184z M44.059,86.372h-19.17
	c0.232-6.846,1.381-13.305,3.212-18.92c5.127,0.594,10.486,0.924,15.958,1.004V86.372z M44.059,63.323
	c-4.816-0.074-9.528-0.354-14.064-0.836c3.503-7.928,8.498-13.418,14.064-14.729V63.323z M49.192,130.12v-15.787
	c4.848,0.088,9.586,0.385,14.142,0.891C59.829,123.24,54.798,128.799,49.192,130.12z"/>
<g>
	<g>
		<path fill="#CA1139" d="M103.407,90.182h22.849V81.37h-22.849V90.182z M103.407,60.155v8.729h22.849v-8.729H103.407z
			 M103.407,79.411h22.849v-8.568h-22.849V79.411z"/>
	</g>
</g>
<path fill="#CA1139" d="M133.191,120.131c-2.774-5.142-8.568-10.691-12.975-12.813l0.245-0.49
	c13.257,2.099,22.576,9.086,22.75,14.928c8.351-8.426,13.513-20.018,13.513-32.818c0-25.75-20.876-46.625-46.625-46.625
	c-25.751,0-46.626,20.875-46.626,46.625c0,12.984,5.312,24.725,13.877,33.18c4.424-3.51,8.416-7.631,10.634-10.229
	c3.754-4.324,4.082-5.631,4.488-7.508l7.427,4.404c1.06,0.654,1.142,0.982,1.142,1.389c0,0.652-0.327,1.143-3.345,1.715
	c-4.731,5.049-11.666,9.541-18.49,11.957c8.227,7.287,19.04,11.718,30.894,11.718c10.84,0,20.808-3.712,28.726-9.916
	C136.135,125.489,134.994,123.42,133.191,120.131z M104.875,58.196h21.053l2.693-2.612c0.326-0.327,0.897-0.897,1.305-0.897
	c0.408,0,0.816,0.408,1.225,0.819l4.08,3.423c0.327,0.246,0.814,0.82,0.814,1.39c0,1.142-1.875,2.366-2.689,2.854
	c-0.165,2.611-0.246,3.836-0.246,6.363c0,6.694,0.408,16.813,0.57,20.238c0,0.9,0.082,2.286,0.082,2.527
	c0,3.105-2.121,4.083-4.65,4.083c-3.102,0-2.939-2.041-2.856-4.243h-22.767c0.082,1.061,0.082,1.714-0.57,2.613
	c-1.305,1.955-4,1.955-4.324,1.955c-2.612,0-2.695-1.63-2.695-2.447c0-0.244,0.083-1.061,0.083-2.039
	c0.081-2.693,0.733-16.566,0.733-24.4c0-5.791-0.325-8.811-1.305-14.195L104.875,58.196z M110.18,129.76
	c-1.877,0-3.02-0.574-3.02-2.857c0-2.04,0.572-11.016,0.572-12.811c0.08-1.879,0.08-6.366-0.082-10.119H87.822
	c0,3.836-4.569,3.836-5.06,3.836c-2.203,0-2.774-1.227-2.774-2.775c0-0.573,0.163-1.713,0.244-2.283
	c0.654-6.041,0.654-18.525,0.654-25.055c0-15.502-0.327-16.891-1.144-19.907l8.731,2.612c0.571,0.16,2.04,0.65,2.04,1.547
	c0,0.736-1.061,1.471-2.611,2.367c-0.081,2.854-0.327,7.835-0.327,17.545c0,4.078,0.081,14.361,0.165,20.156h46.92l4.65-5.059
	c0.408-0.412,0.815-1.063,1.306-1.063s1.225,0.651,1.468,0.899l5.633,5.059c0.487,0.408,0.814,0.732,0.814,1.223
	c0,0.734-0.652,0.898-1.225,0.898h-32.721c0,1.795,0,5.224,0.081,9.873c0.083,3.266,0.409,8.404,0.409,11.67
	C115.077,128.454,112.954,129.76,110.18,129.76z"/>
<path fill="#162850" d="M223.193,120.131c-5.629,1.712-7.18,3.67-9.791,6.934c-10.119-5.793-16.318-16.238-20.402-27.254
	c-4.73-12.893-5.629-25.295-5.629-37.452l-0.57,0.081c0.08,11.668-1.225,27.822-8.078,41.208
	c-3.508,6.771-12.24,18.032-27.744,22.112l-0.488-0.572c9.873-5.63,18.359-17.462,21.785-24.398
	c5.549-11.42,7.426-27.904,7.426-37.779c0-5.061-0.488-6.283-1.061-7.834l10.934,3.02c0.49,0.164,1.797,0.57,1.797,1.305
	c0,0.817-0.654,1.713-2.121,2.369c0.65,17.868,5.955,33.291,13.381,43.083c5.059,6.69,12.158,10.854,20.563,14.605V120.131z"/>
<path fill="#162850" d="M291.84,89.284c-7.262-3.424-19.91-10.523-29.701-29.293c-5.713,10.69-23.338,26.439-36.965,31.988
	l-0.41-0.49c16.646-12.16,27.094-29.213,28.725-31.907c2.123-3.508,2.447-4.651,2.857-6.608l8.813,3.02
	c1.059,0.325,1.305,0.979,1.305,1.303c0,0.98-1.959,1.471-2.938,1.798c5.223,8.076,18.115,19.339,36.475,22.276v0.49
	C296.328,83.409,293.555,85.777,291.84,89.284z M292.656,99.975h-32.23c-3.756,6.443-10.854,14.605-13.465,17.461
	c20.072-1.549,22.277-1.713,30.518-2.855c-2.938-4.65-6.771-8.894-8.65-10.933l0.41-0.49c4.73,1.958,20.889,10.12,20.889,20.154
	c0,1.305-0.898,4.57-4.082,4.57c-2.609,0-4.24-2.122-5.303-5.549c-0.816-2.61-1.143-3.673-2.285-5.958
	c-8.648,2.611-35.576,8.813-40.473,9.631c-0.328,0.813-0.572,1.713-1.387,1.713c-0.896,0-1.389-1.225-1.551-1.713l-3.59-8.978
	c2.529,0.492,4.65,0.897,7.994,0.897c0.898,0,3.92-0.244,5.225-0.326c2.773-6.037,4.406-10.527,6.121-17.625h-11.67
	c-5.715,0-7.264,0.326-8.813,0.57l-1.387-3.02c3.914,0.408,7.752,0.49,11.668,0.49h38.76l4.488-4.977
	c0.814-0.979,0.979-1.061,1.387-1.061c0.328,0,0.49,0.081,1.469,0.898l6.365,5.057c0.244,0.243,0.816,0.652,0.816,1.227
	C293.881,99.975,293.064,99.975,292.656,99.975z M274.703,85.777h-21.787c-4.977,0-6.771,0.244-8.813,0.571l-1.305-3.02
	c4.895,0.49,10.689,0.49,11.588,0.49h8.813l3.998-4.569c0.816-0.978,0.896-1.063,1.305-1.063c0.49,0,1.227,0.654,1.471,0.898
	l5.139,4.57c0.49,0.49,0.816,0.736,0.816,1.305C275.928,85.694,275.193,85.777,274.703,85.777z"/>
</svg>
