<?xml version="1.0" encoding="utf-8"?>
<!-- Generator: Adobe Illustrator 12.0.0, SVG Export Plug-In . SVG Version: 6.00 Build 51448)  -->
<!DOCTYPE svg PUBLIC "-//W3C//DTD SVG 1.1//EN" "http://www.w3.org/Graphics/SVG/1.1/DTD/svg11.dtd" [
	<!ENTITY ns_svg "http://www.w3.org/2000/svg">
	<!ENTITY ns_xlink "http://www.w3.org/1999/xlink">
]>
<svg  version="1.1" id="レイヤー_1" xmlns="&ns_svg;" xmlns:xlink="&ns_xlink;" width="128.685" height="40"
	 viewBox="0 0 128.685 40" overflow="visible" enable-background="new 0 0 128.685 40" xml:space="preserve">
<path fill="#FFFFFF" d="M54.158,12.238h-9.801v3.674h9.801V12.238z M54.158,7.654h-9.801v3.743h9.801V7.654z M54.158,16.754h-9.801
	v3.78h9.801V16.754z M47.227,0c-11.045,0-20,8.955-20,20c0,5.568,2.279,10.605,5.952,14.231c1.898-1.505,3.611-3.273,4.563-4.387
	c1.611-1.855,1.75-2.415,1.926-3.22l3.185,1.888c0.455,0.281,0.49,0.422,0.49,0.597c0,0.279-0.14,0.489-1.435,0.735
	c-2.03,2.165-5.004,4.093-7.931,5.129C37.504,38.099,42.142,40,47.227,40c4.65,0,8.926-1.592,12.323-4.253
	c-1.155-0.069-1.645-0.956-2.417-2.367c-1.19-2.206-3.676-4.586-5.566-5.496l0.105-0.21c5.686,0.9,9.684,3.897,9.759,6.402
	c3.582-3.614,5.795-8.586,5.795-14.076C67.227,8.955,58.272,0,47.227,0z M44.987,6.813h9.03l1.155-1.12
	c0.139-0.141,0.385-0.386,0.56-0.386c0.176,0,0.35,0.175,0.524,0.352l1.751,1.468c0.139,0.106,0.349,0.353,0.349,0.596
	c0,0.49-0.805,1.016-1.154,1.225c-0.07,1.12-0.105,1.645-0.105,2.729c0,2.871,0.174,7.211,0.245,8.681
	c0,0.387,0.035,0.98,0.035,1.085c0,1.332-0.91,1.751-1.995,1.751c-1.331,0-1.262-0.876-1.225-1.82h-9.766
	c0.035,0.455,0.035,0.736-0.245,1.121c-0.56,0.839-1.716,0.839-1.855,0.839c-1.121,0-1.156-0.699-1.156-1.05
	c0-0.104,0.035-0.455,0.035-0.875c0.035-1.154,0.316-7.105,0.316-10.466c0-2.484-0.141-3.78-0.561-6.09L44.987,6.813z M63.188,26.45
	H49.152c0,0.77,0,2.24,0.034,4.234c0.037,1.4,0.176,3.605,0.176,5.006c0,1.261-0.91,1.82-2.1,1.82c-0.805,0-1.295-0.246-1.295-1.225
	c0-0.875,0.246-4.726,0.246-5.496c0.034-0.805,0.034-2.73-0.035-4.34H37.67c0,1.646-1.959,1.646-2.169,1.646
	c-0.945,0-1.19-0.526-1.19-1.191c0-0.246,0.07-0.734,0.104-0.979c0.281-2.591,0.281-7.946,0.281-10.747
	c0-6.65-0.141-7.245-0.491-8.539l3.746,1.121c0.245,0.069,0.874,0.278,0.874,0.663c0,0.316-0.455,0.631-1.12,1.016
	c-0.035,1.225-0.141,3.361-0.141,7.526c0,1.75,0.035,6.16,0.07,8.646h20.128l1.995-2.17c0.174-0.177,0.349-0.457,0.56-0.457
	c0.209,0,0.524,0.28,0.63,0.387l2.416,2.17c0.209,0.176,0.349,0.314,0.349,0.524C63.712,26.379,63.432,26.45,63.188,26.45z"/>
<path fill="#FFFFFF" d="M30.307,34.489c-1.151,0.821-2.399,1.514-3.73,2.045c0.897-1.06,1.695-2.337,2.379-3.787
	c-0.811-1.163-1.514-2.405-2.096-3.714c-1.866-0.19-3.792-0.308-5.758-0.343V21.1h3.873c-0.018-0.364-0.028-0.731-0.028-1.1
	c0-0.37,0.011-0.737,0.028-1.102h-3.873v-7.684c1.977-0.03,3.916-0.139,5.793-0.324c0.576-1.281,1.266-2.498,2.061-3.635
	c-0.684-1.452-1.481-2.729-2.379-3.789c1.331,0.532,2.58,1.225,3.73,2.045c0.484-0.565,0.996-1.104,1.533-1.619
	C28.523,1.449,24.428,0,20,0C8.972,0,0,8.971,0,20c0,11.028,8.972,20,20,20c4.428,0,8.523-1.449,11.84-3.894
	C31.303,35.592,30.792,35.053,30.307,34.489z M21.101,2.336c2.388,0.563,4.53,2.918,6.033,6.318
	c-1.946,0.206-3.967,0.327-6.033,0.359V2.336z M13.423,3.466c-1.119,1.323-2.09,2.983-2.87,4.901
	C9.367,8.193,8.217,7.984,7.111,7.745C8.869,5.897,11.017,4.427,13.423,3.466z M5.543,9.637c1.357,0.33,2.779,0.611,4.26,0.84
	c-0.77,2.517-1.24,5.369-1.332,8.422H2.239C2.451,15.457,3.645,12.279,5.543,9.637z M5.451,30.232
	c-1.845-2.614-3.004-5.745-3.212-9.132h6.232c0.09,3.003,0.547,5.809,1.294,8.293C8.264,29.62,6.826,29.904,5.451,30.232z
	 M6.996,32.134c1.127-0.241,2.299-0.449,3.508-0.622c0.788,1.969,1.776,3.67,2.919,5.021C10.964,35.552,8.775,34.04,6.996,32.134z
	 M18.899,37.665c-2.415-0.569-4.581-2.971-6.085-6.434c1.963-0.203,4.002-0.32,6.085-0.344V37.665z M18.899,28.685
	c-2.36,0.027-4.67,0.164-6.883,0.414c-0.764-2.382-1.242-5.109-1.339-7.999h8.223V28.685z M18.899,18.898h-8.223
	c0.099-2.936,0.592-5.707,1.378-8.115c2.199,0.254,4.498,0.396,6.845,0.431V18.898z M18.899,9.013
	c-2.065-0.033-4.087-0.154-6.033-0.359c1.503-3.4,3.646-5.755,6.033-6.318V9.013z M21.101,37.665v-6.772
	c2.079,0.039,4.112,0.167,6.065,0.383C25.664,34.713,23.506,37.098,21.101,37.665z"/>
<path fill="#FFFFFF" d="M95.74,33.38c-2.416,0.734-3.08,1.574-4.201,2.974c-4.34-2.484-7-6.965-8.751-11.689
	c-2.028-5.53-2.414-10.851-2.414-16.065l-0.245,0.034c0.034,5.005-0.526,11.935-3.466,17.677c-1.504,2.903-5.25,7.734-11.901,9.484
	l-0.208-0.245c4.234-2.415,7.875-7.49,9.345-10.466c2.38-4.898,3.185-11.969,3.185-16.206c0-2.17-0.21-2.694-0.455-3.359
	l4.689,1.294c0.211,0.07,0.772,0.245,0.772,0.56c0,0.35-0.281,0.734-0.912,1.016c0.28,7.665,2.555,14.281,5.741,18.481
	c2.169,2.87,5.215,4.655,8.82,6.265V33.38z"/>
<path fill="#FFFFFF" d="M125.185,20.149c-3.116-1.469-8.541-4.515-12.741-12.565c-2.449,4.584-10.01,11.341-15.855,13.722
	l-0.176-0.211c7.141-5.217,11.621-12.53,12.322-13.687c0.91-1.505,1.049-1.996,1.225-2.835l3.78,1.296
	c0.454,0.139,0.56,0.419,0.56,0.559c0,0.42-0.84,0.63-1.26,0.771c2.241,3.465,7.771,8.296,15.646,9.556v0.209
	C127.111,17.627,125.92,18.643,125.185,20.149z M125.535,24.735h-13.826c-1.61,2.764-4.656,6.264-5.774,7.489
	c8.609-0.664,9.555-0.734,13.09-1.226c-1.261-1.993-2.905-3.813-3.71-4.688l0.175-0.211c2.03,0.84,8.959,4.341,8.959,8.646
	c0,0.561-0.384,1.96-1.749,1.96c-1.121,0-1.82-0.91-2.276-2.38c-0.349-1.119-0.489-1.576-0.98-2.555
	c-3.709,1.119-15.26,3.779-17.36,4.131c-0.14,0.348-0.245,0.734-0.594,0.734c-0.386,0-0.597-0.525-0.666-0.734l-1.541-3.852
	c1.085,0.211,1.995,0.386,3.43,0.386c0.386,0,1.681-0.105,2.241-0.141c1.188-2.59,1.889-4.516,2.625-7.56h-5.005
	c-2.451,0-3.116,0.139-3.78,0.244l-0.595-1.295c1.68,0.174,3.324,0.209,5.005,0.209h16.625l1.926-2.134
	c0.349-0.421,0.419-0.454,0.595-0.454c0.14,0,0.21,0.033,0.63,0.384l2.73,2.169c0.104,0.105,0.349,0.281,0.349,0.526
	C126.06,24.735,125.711,24.735,125.535,24.735z M117.834,18.643h-9.346c-2.134,0-2.904,0.105-3.78,0.245l-0.56-1.294
	c2.1,0.209,4.586,0.209,4.971,0.209h3.78l1.715-1.959c0.35-0.419,0.385-0.456,0.56-0.456c0.21,0,0.526,0.28,0.63,0.385l2.205,1.959
	c0.211,0.211,0.35,0.316,0.35,0.56C118.359,18.608,118.044,18.643,117.834,18.643z"/>
</svg>
