<?xml version="1.0" encoding="utf-8"?>
<!-- Generator: Adobe Illustrator 12.0.0, SVG Export Plug-In . SVG Version: 6.00 Build 51448)  -->
<!DOCTYPE svg PUBLIC "-//W3C//DTD SVG 1.1//EN" "http://www.w3.org/Graphics/SVG/1.1/DTD/svg11.dtd" [
	<!ENTITY ns_svg "http://www.w3.org/2000/svg">
	<!ENTITY ns_xlink "http://www.w3.org/1999/xlink">
]>
<svg  version="1.1" id="レイヤー_1" xmlns="&ns_svg;" xmlns:xlink="&ns_xlink;" width="267.719" height="21.333"
	 viewBox="0 0 267.719 21.333" overflow="visible" enable-background="new 0 0 267.719 21.333" xml:space="preserve">
<path fill="#FFFFFF" d="M0,11.621v-1.174h12.565v1.174H0z"/>
<path fill="#FFFFFF" d="M38.647,3.221c-0.021,0.483-0.045,0.99-0.045,1.772c0,1.358,0.115,8.952,0.138,10.402
	c0,0.691,0.023,1.841,0.023,2.739c0,1.404-0.138,2.369-2.877,2.945c-0.069-0.712-0.23-1.427-1.956-2.255l0.022-0.184
	c1.243,0.091,2.003,0.114,2.233,0.114c0.644,0,0.805-0.045,0.805-0.896v-6.882c0-0.877-0.022-7.871-0.022-8.402V2.325H23.528
	c0,1.335,0,7.203-0.024,8.399c0,0.783-0.021,1.564-0.021,2.369c0,2.142,0,4.326,0.114,5.985c0,0.116,0.024,0.366,0.024,0.601
	c0,1.172-1.222,1.172-1.336,1.172c-0.689,0-0.689-0.438-0.689-0.783c0-0.322,0.092-1.795,0.092-2.118
	c0.045-1.52,0.184-7.089,0.184-11.321c0-4.304-0.092-4.855-0.345-5.894l2.164,1.038h13.026l0.622-0.667
	c0.138-0.141,0.229-0.211,0.368-0.211s0.253,0.07,0.392,0.185l1.15,1.014C39.385,2.231,39.5,2.371,39.5,2.485
	C39.5,2.715,39.178,2.899,38.647,3.221z M35.38,6.006h-7.203c-0.415,0-1.611,0-2.715,0.209l-0.46-0.921
	c1.427,0.114,2.853,0.161,3.544,0.161h4.326l0.76-0.945c0.162-0.184,0.252-0.277,0.391-0.277c0.115,0,0.253,0.072,0.437,0.254
	l1.037,0.922c0.114,0.115,0.229,0.254,0.229,0.391C35.725,5.938,35.564,6.006,35.38,6.006z M33.723,9.919
	c-0.023,0.712,0.024,2.001,0.047,2.762c0,0.392,0.092,2.117,0.092,2.371c0,0.3-0.068,0.528-0.3,0.69
	c-0.252,0.182-0.598,0.254-0.851,0.254c-0.575,0-0.575-0.277-0.575-0.83v-0.344h-3.981c0.022,0.275,0.022,1.035-0.023,1.242
	c-0.116,0.529-0.737,0.734-1.128,0.734c-0.598,0-0.598-0.411-0.598-0.598c0-0.92,0.184-4.97,0.184-5.799
	c0-0.968-0.045-1.451-0.253-2.577l1.958,1.058h3.728l0.483-0.553c0.161-0.182,0.253-0.254,0.368-0.254
	c0.116,0,0.23,0.072,0.415,0.232l0.851,0.668c0.162,0.135,0.23,0.252,0.23,0.367C34.368,9.549,34.114,9.712,33.723,9.919z
	 M32.135,9.435h-3.981v4.833h3.981V9.435z"/>
<path fill="#FFFFFF" d="M49.188,5.294c-0.483,0.804-2.508,4.349-2.945,5.063c-0.391,0.598-0.667,0.969-0.852,1.219
	c0.323-0.044,1.794-0.207,2.095-0.25c0.022-0.211,0.069-0.624,0.069-0.992c0-0.507-0.116-0.898-0.184-1.173l1.749,0.412
	c0.186,0.046,0.346,0.163,0.346,0.347c0,0.137-0.068,0.276-0.414,0.644c-0.853,6.285-4.029,8.287-6.099,9.322l-0.047-0.162
	c3.268-2.715,4.235-6.283,4.51-7.848c-0.874,0.439-2.486,1.129-3.268,1.451c-0.162,0.344-0.276,0.53-0.437,0.53
	c-0.184,0-0.276-0.301-0.323-0.417l-0.621-1.794c0.299,0.046,0.552,0.069,0.874,0.069c0.3,0,0.782-0.046,1.127-0.069
	c1.243-2.257,2.349-4.604,3.015-7.09c0.094-0.366,0.162-0.758,0.208-0.966l1.519,0.829c0.161,0.091,0.276,0.137,0.276,0.276
	C49.788,4.856,49.719,4.924,49.188,5.294z M47.439,2.348c-1.702,2.625-1.886,2.898-2.231,3.36c0.712,0.507,1.219,1.219,1.219,1.84
	c0,0.323-0.298,0.782-0.759,0.782c-0.415,0-0.484-0.137-1.104-1.266c-0.69-1.29-1.289-1.725-1.749-2.048l0.139-0.184
	c0.896,0.206,1.38,0.39,1.932,0.69c0.207-0.551,1.059-2.875,1.059-4.901l1.749,0.78c0.3,0.139,0.415,0.256,0.415,0.393
	C48.107,2.024,47.901,2.164,47.439,2.348z M55.887,18.618c-0.737,0-0.897-0.735-1.036-1.448c-0.022-0.162-0.139-0.693-0.368-1.313
	c-0.415,0.296-1.013,0.713-2.071,1.313c-0.875,0.507-2.325,1.357-2.624,1.52c-0.162,0.366-0.208,0.506-0.415,0.506
	c-0.162,0-0.299-0.233-0.391-0.346l-1.06-1.59c0.806-0.023,1.244-0.068,2.164-0.299c0-2.416,0.023-9.136,0-11.023
	c0-0.965-0.069-3.038-0.368-4.326l2.002,1.059h2.647l0.645-0.6c0.115-0.092,0.23-0.229,0.322-0.229c0.092,0,0.299,0.161,0.391,0.229
	l0.714,0.578c0.114,0.088,0.253,0.251,0.253,0.411c0,0.207-0.069,0.255-0.759,0.69c0.021,0.945-0.024,5.133,0,5.985
	c0,0.3,0.091,1.61,0.091,1.862c0,0.717-0.598,0.989-0.989,0.989c-0.576,0-0.553-0.298-0.506-1.496h-2.993v5.457
	c1.104-0.347,1.842-0.577,2.832-0.989c-0.368-0.898-0.83-1.659-1.45-2.371l0.137-0.16c1.335,0.918,3.707,2.553,3.707,4.51
	C56.762,17.837,56.623,18.618,55.887,18.618z M54.529,3.221h-2.993v3.338h2.993V3.221z M54.529,7.11h-2.993v3.431h2.993V7.11z
	 M60.397,18.273c-0.092-0.597-0.184-1.381-1.196-2.232l0.045-0.184c0.461,0.139,0.944,0.207,1.427,0.207
	c1.199,0,1.267-0.967,1.267-1.496c0-3.083-2.072-5.134-2.739-5.779c0.759-2.16,1.563-5.383,1.702-6.188h-2.094
	c0.023,0.619,0.047,1.036,0.047,1.68c0,1.587-0.047,8.563-0.024,9.986c0.024,0.851,0.139,4.694,0.139,5.479
	c0,0.345,0,1.105-1.151,1.105c-0.576,0-0.599-0.46-0.599-0.737c0-0.163,0.047-0.875,0.047-1.013
	c0.137-2.625,0.137-9.918,0.137-12.887c0-0.553,0-3.822-0.162-5.065l1.681,0.898h1.887l0.668-0.552
	c0.162-0.115,0.254-0.184,0.346-0.184c0.137,0,0.299,0.114,0.414,0.205l0.898,0.808c0.252,0.206,0.275,0.435,0.275,0.528
	c0,0.3-0.232,0.39-0.898,0.69c-0.229,0.505-0.482,1.012-1.38,2.602c-0.852,1.496-1.082,1.886-1.45,2.555
	c2.301,1.612,3.867,3.566,3.867,5.891C63.551,15.857,63.206,17.813,60.397,18.273z"/>
<path fill="#FFFFFF" d="M86.911,18.962c-1.381,0.301-1.889,0.784-2.602,1.613c-2.83-1.75-4.719-4.628-5.891-7.731
	c-0.783-2.053-1.566-4.834-1.682-10.473c-0.092,0.021-0.137,0.021-0.252,0.043c-0.23,7.828-1.75,15.123-9.967,18.09l-0.092-0.184
	c2.809-1.679,5.201-4.808,6.283-7.042c1.656-3.429,2.025-8.306,2.025-10.886c0-1.104-0.092-1.38-0.207-1.75l2.785,0.715
	c0.391,0.093,0.461,0.139,0.461,0.322c0,0.368-0.369,0.505-0.6,0.574c0.162,4.004,1.381,8.837,3.521,11.899
	c2.232,3.152,5.086,4.214,6.238,4.625L86.911,18.962z"/>
<path fill="#FFFFFF" d="M105.045,19.01c-0.645,0.206-3.152,0.369-4.557,0.369c-0.783,0-4.533,0.023-6.215-1.152
	c-0.896-0.62-1.449-1.656-1.449-2.623c0-1.427,0.922-3.66,4.418-5.846c-0.275-0.414-0.896-1.335-0.92-2.671
	c-0.068-3.59-0.092-3.979-0.207-4.462c-0.139-0.577-0.529-1.014-0.852-1.175c-0.645-0.344-0.736-0.37-0.898-0.484
	c0.277-0.114,0.736-0.323,1.313-0.323c1.014,0,2.646,0.922,2.646,1.611c0,0.117-0.092,0.395-0.137,0.506
	c-0.184,0.555-0.484,1.383-0.484,3.178c0,1.127,0.045,2.256,0.506,3.268c1.336-0.76,2.74-1.38,4.213-1.91
	c0.414-0.16,0.668-0.298,0.668-0.621c0-0.161-0.047-0.345-0.186-0.736c0.367,0.091,1.082,0.231,1.52,0.736
	c0.369,0.413,0.621,0.99,0.621,1.242c0,0.644-0.16,0.644-1.428,0.851c-3.268,0.507-10.01,3.407-10.01,6.629
	c0,2.465,3.428,2.465,4.924,2.465c1.795,0,2.693-0.14,4.949-0.531c0.322-0.046,0.598-0.093,0.875-0.093
	c0.621,0,1.564,0.229,1.564,0.968C105.92,18.732,105.344,18.919,105.045,19.01z"/>
<path fill="#FFFFFF" d="M131.995,15.006h-8.605c0.711,0.918,3.773,3.684,8.791,3.59v0.137c-0.943,0.229-1.818,1.291-2.049,1.91
	c-4.303-1.427-6.537-4.188-7.135-5.614c0,0.759,0.092,4.417,0.092,5.246c0,0.989-1.035,0.989-1.127,0.989
	c-0.576,0-0.646-0.412-0.646-0.688c0-0.69,0.186-4.051,0.209-4.788c-1.908,2.073-5.709,4.441-8.885,4.971l-0.068-0.137
	c3.016-1.452,5.779-3.66,7.432-5.615h-4.877c-0.619,0-1.703,0.022-2.717,0.206l-0.459-0.897c1.818,0.137,3.131,0.137,3.543,0.137
	h6.031c-0.047-1.725-0.139-2.001-0.414-2.531l2.162,0.601c0.117,0.023,0.322,0.112,0.322,0.274c0,0.184-0.139,0.369-0.529,0.645
	c-0.047,0.714-0.047,0.783-0.047,1.012h6.354l0.828-1.035c0.115-0.16,0.23-0.299,0.346-0.299c0.117,0,0.23,0.047,0.438,0.254
	l1.127,1.035c0.139,0.139,0.232,0.205,0.232,0.346C132.342,15.006,132.11,15.006,131.995,15.006z M121.202,7.504h-3.131v2.781
	c1.611-0.25,2.186-0.413,2.693-0.55l0.023,0.137c-0.598,0.301-1.037,0.507-3.359,1.359c-1.082,0.414-2.395,0.921-3.109,1.219
	c-0.16,0.505-0.297,0.599-0.436,0.599c-0.07,0-0.229-0.115-0.299-0.254l-0.99-1.977c0.506,0.09,0.828,0.112,1.014,0.112
	c0.551,0,2.416-0.3,3.061-0.413V7.504h-0.463c-0.412,0-1.219,0.021-1.953,0.138l-0.463-0.829c1.291,0.091,2.463,0.138,2.785,0.138
	h2.557l0.551-0.735c0.162-0.209,0.207-0.301,0.346-0.301c0.137,0,0.254,0.092,0.438,0.255l0.85,0.734
	c0.094,0.071,0.232,0.231,0.232,0.344C121.547,7.458,121.362,7.504,121.202,7.504z M121.616,3.82h-4.578
	c1.012,0.391,2.137,0.807,2.137,1.888c0,0.461-0.344,0.851-0.781,0.851c-0.598,0-0.713-0.53-0.828-0.99
	c-0.184-0.781-0.781-1.564-1.012-1.748h-0.461c-1.543,1.771-2.785,2.509-3.336,2.832l-0.07-0.072c1.404-1.678,2.648-3.449,3.5-5.474
	c0.182-0.44,0.229-0.669,0.205-1.106l1.842,0.943c0.207,0.092,0.346,0.229,0.346,0.393c0,0.229-0.254,0.344-0.945,0.528
	c-0.391,0.528-0.643,0.872-1.08,1.402h2.854l0.643-0.735c0.232-0.253,0.254-0.277,0.369-0.277c0.139,0,0.254,0.094,0.439,0.231
	l0.895,0.735c0.094,0.094,0.232,0.233,0.232,0.346C121.985,3.774,121.778,3.82,121.616,3.82z M131.374,12.014
	c-0.391,0.207-0.758,0.253-3.43,0.253c-1.656,0-1.656-0.853-1.656-1.819c0-0.184,0-1.059,0.068-3.06h-2.854
	c-0.047,0.528-0.07,0.806-0.205,1.335c1.609,0.461,2.461,0.92,2.461,1.795c0,0.162-0.045,0.828-0.736,0.828
	c-0.506,0-0.576-0.207-0.875-1.061c-0.301-0.851-0.367-0.941-0.875-1.471c-0.781,2.693-3.152,3.522-4.693,3.818l-0.047-0.112
	c3.037-1.496,3.521-3.961,3.521-5.017c0-0.394-0.068-0.875-0.16-1.246l-0.23,0.186l-0.094-0.068
	c0.691-1.059,2.531-4.788,2.395-6.258l1.934,0.941c0.07,0.048,0.252,0.16,0.252,0.322c0,0.23-0.205,0.32-0.85,0.527
	c-0.254,0.463-0.439,0.762-0.807,1.335h4.234l0.783-0.965c0.139-0.185,0.254-0.3,0.391-0.3c0.139,0,0.254,0.092,0.414,0.253
	l1.082,0.966c0.115,0.117,0.23,0.229,0.23,0.347c0,0.23-0.23,0.254-0.369,0.254h-5.201c0.922,0.298,2.07,0.646,2.07,1.657
	c0,0.297-0.184,0.92-0.895,0.851l0.918,0.669c0.07,0.043,0.23,0.206,0.23,0.32c0,0.187-0.254,0.393-0.691,0.691
	c-0.021,0.507-0.066,2.187-0.021,2.555c0.045,0.367,0.275,0.367,1.012,0.367c1.131,0,1.588-0.068,1.82-0.461
	c0.162-0.298,0.275-0.669,0.689-1.931h0.115c0.115,1.102,0.299,1.656,0.736,1.979c0.207,0.135,0.277,0.251,0.277,0.365
	C132.319,11.392,131.788,11.805,131.374,12.014z M126.334,5.133c-0.438-0.9-0.828-1.221-0.969-1.335h-1.24
	c-0.713,1.012-1.404,1.726-2.164,2.394l1.703,0.645h2.369l0.6-0.53c0.068-0.07,0.139-0.114,0.229-0.137
	C126.749,6.052,126.424,5.294,126.334,5.133z"/>
<path fill="#FFFFFF" d="M148.542,21.104c-0.367,0-0.438-0.094-1.518-1.841c-1.266-2.048-1.795-2.578-6.166-6.905
	c-0.232-0.23-0.83-0.896-0.83-1.633c0-0.368,0.068-0.759,0.85-1.587c2.326-2.464,5.824-6.124,5.824-7.02
	c0-0.554-0.508-1.06-1.105-1.657c2.025-0.207,3.107,1.473,3.107,2.348c0,0.458-0.229,0.646-0.92,1.195
	c-0.736,0.575-4.166,3.729-6.074,5.822c-0.395,0.416-0.395,0.715-0.395,0.854c0,0.574,0.162,0.734,2.027,2.438
	c5.154,4.649,6.074,5.455,6.074,6.65C149.417,20.298,149.118,21.104,148.542,21.104z"/>
<path fill="#FFFFFF" d="M161.43,13.164c-0.367,0-1.588,0-2.693,0.207l-0.457-0.921c1.68,0.137,3.129,0.16,3.543,0.16h0.898
	c0-1.356-0.023-2.368-0.209-3.312l2.096,0.573c0.184,0.047,0.32,0.163,0.32,0.323c0,0.161-0.113,0.322-0.711,0.623
	c-0.047,0.507-0.07,0.896-0.092,1.792h1.885l0.781-0.827c0.186-0.186,0.301-0.298,0.393-0.298c0.139,0,0.322,0.136,0.438,0.229
	l1.037,0.852c0.113,0.092,0.229,0.207,0.229,0.344c0,0.207-0.207,0.254-0.369,0.254h-4.393c-0.025,0.207-0.025,0.392-0.025,1.127
	c1.197,0.16,3.199,0.784,3.199,2.211c0,0.641-0.461,0.941-0.852,0.941c-0.551,0-0.783-0.529-0.941-0.919
	c-0.209-0.507-0.578-1.358-1.406-1.956c0,0.896,0.16,4.788,0.16,5.569c0,0.714-0.389,0.989-1.08,0.989
	c-0.506,0-0.713-0.229-0.713-0.646c0-0.297,0.275-3.979,0.275-4.601c0-0.186-0.021-1.106-0.021-1.27
	c-0.877,1.336-2.832,3.5-5.25,4.604l-0.09-0.137c2.301-2.071,3.912-4.673,4.58-5.915H161.43z M166.54,8.7l0.691-0.808
	c0.162-0.182,0.254-0.299,0.346-0.299c0.16,0,0.299,0.16,0.414,0.254l0.943,0.806c0.115,0.093,0.23,0.229,0.23,0.37
	c0,0.205-0.186,0.229-0.346,0.229h-7.617c-0.391,0-1.59,0-2.717,0.206l-0.438-0.898c1.68,0.117,3.154,0.141,3.521,0.141h2.531
	c0.23-0.484,1.336-2.948,1.244-4.739l2.07,1.149c0.162,0.091,0.232,0.206,0.232,0.368c0,0.39-0.484,0.413-0.832,0.436
	c-0.229,0.321-1.402,1.797-2.369,2.786H166.54z M166.034,3.221l0.805-0.873c0.115-0.14,0.277-0.277,0.367-0.277
	c0.141,0,0.279,0.114,0.416,0.231l1.012,0.875c0.139,0.114,0.232,0.206,0.232,0.367c0,0.206-0.186,0.23-0.348,0.23h-6.557
	c-0.393,0-1.588,0-2.717,0.207l-0.438-0.922c1.174,0.117,2.348,0.161,3.521,0.161h0.736c0.023-1.013-0.047-2.048-0.367-3.152
	l2.324,0.621c0.207,0.046,0.344,0.14,0.344,0.323c0,0.229-0.32,0.46-0.781,0.712c0,0.23-0.047,1.175-0.047,1.496H166.034z
	 M160.579,4.35c0.852,0.46,2.555,1.473,2.555,2.809c0,0.619-0.367,1.012-0.85,1.012c-0.621,0-0.898-0.393-1.012-1.313
	c-0.094-0.76-0.209-1.402-0.854-2.392L160.579,4.35z M177.334,1.635c0.09,0.09,0.137,0.184,0.137,0.32
	c0,0.139-0.113,0.276-0.367,0.276c-0.16,0-0.346-0.047-0.898-0.184c-1.449,0.392-4.258,0.644-4.877,0.667
	c-0.025,1.406-0.047,3.684-0.07,5.225h4.717l0.854-1.082c0.092-0.137,0.229-0.299,0.391-0.299c0.068,0,0.275,0.115,0.414,0.254
	l1.197,1.059c0.115,0.094,0.23,0.229,0.23,0.368c0,0.231-0.207,0.254-0.346,0.254h-3.475c0,1.448,0.113,7.503,0.113,7.638
	c0,0.623,0.115,3.338,0.115,3.96c0,0.735-0.689,1.059-1.242,1.059s-0.621-0.298-0.621-0.598c0-0.138,0-0.392,0.021-0.667
	c0.094-1.841,0.162-5.385,0.162-9.094c0-0.689-0.021-1.518-0.047-2.298h-2.484c-0.047,5.384-0.805,9.434-5.293,12.059l-0.139-0.138
	c2.9-2.994,3.936-5.479,3.936-13.762c0-1.406-0.021-4.213-0.369-5.41l2.051,0.989c0.758-0.207,3.174-0.919,4.164-2.163
	L177.334,1.635z"/>
<path fill="#FFFFFF" d="M191.12,20.045c-3.889,0-4.51-1.795-4.51-5.868c0-1.173,0.275-8.653,0.275-9.872
	c0-1.797-0.438-1.957-1.863-2.44c0.527-0.575,1.426-0.575,1.518-0.575c1.127,0,2.508,1.104,2.508,1.771
	c0,0.207-0.229,1.106-0.275,1.29c-0.781,3.959-0.852,9.667-0.852,10.496c0,2.598,0,3.887,2.531,3.887
	c2.717,0,8.125-2.345,10.195-4.303l0.094,0.094C198.922,17.927,194.893,20.045,191.12,20.045z"/>
<path fill="#FFFFFF" d="M211.42,15.625c-0.023,0.117-0.047,0.185-0.047,0.299c0,0.187,0.182,1.059,0.182,1.246
	c0,0.597-0.367,0.78-0.711,0.78c-0.807,0-4.076-1.151-4.467-7.708c-0.137-2.277-0.229-3.729-0.367-4.236
	c-0.207-0.826-0.574-1.45-0.807-1.885c1.174,0.068,2.9,1.08,2.9,2.576c0,0.16,0,0.3-0.092,0.761
	c-0.139,0.851-0.299,1.977-0.299,3.198c0,2.83,1.381,4.51,2.002,4.51c0.254,0,0.482-0.298,0.553-0.414
	c1.035-1.541,2.738-3.981,3.729-5.547l0.184,0.068C213.858,9.966,211.463,15.375,211.42,15.625z M222.811,14.2
	c-0.277,0-0.367-0.094-1.266-0.944c-0.621-0.575-1.865-0.806-2.439-0.919v-0.14c0.322-0.045,1.887-0.184,2.049-0.231
	c0.299-0.067,0.504-0.251,0.504-0.598c0-0.712-1.195-4.098-4.049-5.522c0.162-0.023,0.205-0.047,0.391-0.047
	c2.578,0,5.615,4.236,5.615,6.905C223.616,13.51,223.178,14.2,222.811,14.2z"/>
<path fill="#FFFFFF" d="M234.917,4.579c0.115,0.07,0.23,0.184,0.23,0.345c0,0.393-0.529,0.438-0.875,0.484
	c-0.758,1.172-2.854,3.797-3.729,4.741c1.244-0.07,2.209-0.114,3.406-0.254c-0.527-0.806-0.621-0.944-1.035-1.313l0.023-0.112
	c1.68,0.459,3.221,1.195,3.221,2.414c0,0.601-0.414,0.945-0.805,0.945c-0.574,0-0.76-0.505-0.898-0.828
	c-0.068-0.162-0.23-0.506-0.275-0.717l-1.908,0.485c0.02,0.69,0.113,9.021,0.113,9.274c0,0.67-0.346,1.059-1.035,1.059
	c-0.598,0-0.623-0.322-0.623-0.76c0-0.229,0.07-1.311,0.07-1.519c0.023-0.481,0.023-1.794,0.023-2.301
	c0-1.406,0.023-3.798,0.023-5.386c-1.729,0.416-2.072,0.459-2.439,0.53c-0.301,0.552-0.324,0.598-0.508,0.598
	c-0.207,0-0.322-0.229-0.367-0.368l-0.738-1.863c0.301,0.114,0.645,0.207,1.475,0.207c0.115,0,1.195-0.047,1.703-0.069
	c1.289-2.024,2.945-4.905,3.105-6.676L234.917,4.579z M227.045,19.814c0.666-1.842,1.268-4.833,1.336-7.204l1.633,0.761
	c0.139,0.068,0.367,0.185,0.367,0.368c0,0.16-0.068,0.206-0.574,0.483c-0.988,3.773-2.164,5.134-2.602,5.614L227.045,19.814z
	 M227.758,3.889c0.438,0.115,0.967,0.301,1.703,0.69c1.383-2.968,1.451-3.728,1.52-4.534l1.84,1.035
	c0.117,0.069,0.209,0.139,0.209,0.347c0,0.298-0.23,0.347-0.758,0.438c-1.199,1.473-1.313,1.61-2.512,2.898
	c1.246,0.806,1.246,1.566,1.246,1.772c0,0.439-0.254,0.969-0.809,0.969c-0.598,0-0.736-0.346-1.059-1.269
	c-0.277-0.827-0.852-1.634-1.428-2.231L227.758,3.889z M232.915,12.888c2.117,1.058,3.313,2.671,3.313,3.614
	c0,0.346-0.182,1.104-0.85,1.104c-0.531,0-0.645-0.301-0.969-1.313c-0.574-1.726-0.781-2.071-1.541-3.29L232.915,12.888z
	 M238.506,2.854c0.094,0.046,0.207,0.16,0.207,0.323c0,0.277-0.252,0.367-0.574,0.461c-1.221,2.276-1.797,3.359-3.66,4.945
	l-0.092-0.112c1.428-2.349,2.277-5.064,2.232-6.537L238.506,2.854z M245.366,13.094l0.736-1.219
	c0.068-0.092,0.229-0.277,0.367-0.277c0.162,0,0.369,0.186,0.414,0.232l1.244,1.219c0.139,0.115,0.23,0.207,0.23,0.344
	c0,0.207-0.207,0.253-0.346,0.253h-6.422c0,1.015,0.162,5.479,0.162,6.399c0,0.459,0,1.288-1.197,1.288
	c-0.506,0-0.666-0.229-0.666-0.69c0-0.322,0.09-1.747,0.113-2.024c0.068-1.382,0.068-3.015,0.092-4.973h-1.588
	c-0.23,0-1.656,0-2.715,0.211l-0.461-0.923c1.75,0.139,3.475,0.16,3.545,0.16h1.219c0-2.092,0-2.347,0.023-4.348h-0.553
	c-0.391,0-1.588,0-2.715,0.205l-0.438-0.92c1.266,0.091,2.578,0.162,3.705,0.162c0.023-6.009,0-6.398-0.438-7.825l2.279,0.483
	c0.16,0.023,0.391,0.092,0.391,0.344c0,0.255-0.184,0.369-0.738,0.692c0,0.966-0.021,5.89-0.021,6.306h2.277l0.67-1.083
	c0.066-0.093,0.229-0.298,0.367-0.298c0.16,0,0.391,0.229,0.414,0.252l1.059,1.084c0.16,0.16,0.207,0.205,0.207,0.345
	c0,0.207-0.207,0.253-0.344,0.253h-4.65c-0.021,1.678,0,1.955,0,4.348H245.366z M242.903,2.92c3.152,0.211,4.279,1.476,4.279,2.42
	c0,0.482-0.299,0.806-0.805,0.806c-0.438,0-0.527-0.117-1.426-1.195c-0.922-1.13-1.428-1.496-2.049-1.937V2.92z"/>
<path fill="#FFFFFF" d="M255.153,11.621v-1.174h12.566v1.174H255.153z"/>
</svg>
